<mxfile host="app.diagrams.net" agent="Mozilla/5.0 (Macintosh; Intel Mac OS X 10_15_7) AppleWebKit/605.1.15 (KHTML, like Gecko) Version/17.6 Safari/605.1.15" version="27.1.5">
  <diagram name="PÃ¡gina-1" id="Ix2mCY1xLSWXZ_ROp7hZ">
    <mxGraphModel dx="933" dy="598" grid="1" gridSize="10" guides="1" tooltips="1" connect="1" arrows="1" fold="1" page="1" pageScale="1" pageWidth="827" pageHeight="1169" math="0" shadow="0">
      <root>
        <mxCell id="0" />
        <mxCell id="1" parent="0" />
        <mxCell id="5IvRK5_Uc5L18yJWNoeg-30" value="" style="edgeStyle=orthogonalEdgeStyle;rounded=0;orthogonalLoop=1;jettySize=auto;html=1;" edge="1" parent="1" source="5IvRK5_Uc5L18yJWNoeg-28" target="5IvRK5_Uc5L18yJWNoeg-29">
          <mxGeometry relative="1" as="geometry" />
        </mxCell>
        <mxCell id="5IvRK5_Uc5L18yJWNoeg-28" value="START" style="rounded=1;whiteSpace=wrap;html=1;" vertex="1" parent="1">
          <mxGeometry x="320" y="10" width="120" height="30" as="geometry" />
        </mxCell>
        <mxCell id="5IvRK5_Uc5L18yJWNoeg-32" value="" style="edgeStyle=orthogonalEdgeStyle;rounded=0;orthogonalLoop=1;jettySize=auto;html=1;" edge="1" parent="1" source="5IvRK5_Uc5L18yJWNoeg-29" target="5IvRK5_Uc5L18yJWNoeg-31">
          <mxGeometry relative="1" as="geometry" />
        </mxCell>
        <mxCell id="5IvRK5_Uc5L18yJWNoeg-29" value="Generate a random word. give tip?" style="whiteSpace=wrap;html=1;rounded=1;" vertex="1" parent="1">
          <mxGeometry x="320" y="70" width="120" height="30" as="geometry" />
        </mxCell>
        <mxCell id="5IvRK5_Uc5L18yJWNoeg-34" value="" style="edgeStyle=orthogonalEdgeStyle;rounded=0;orthogonalLoop=1;jettySize=auto;html=1;" edge="1" parent="1" source="5IvRK5_Uc5L18yJWNoeg-31" target="5IvRK5_Uc5L18yJWNoeg-33">
          <mxGeometry relative="1" as="geometry" />
        </mxCell>
        <mxCell id="5IvRK5_Uc5L18yJWNoeg-31" value="Generate as many blanks as letters in word" style="whiteSpace=wrap;html=1;rounded=1;" vertex="1" parent="1">
          <mxGeometry x="320" y="120" width="120" height="50" as="geometry" />
        </mxCell>
        <mxCell id="5IvRK5_Uc5L18yJWNoeg-36" value="" style="edgeStyle=orthogonalEdgeStyle;rounded=0;orthogonalLoop=1;jettySize=auto;html=1;" edge="1" parent="1" source="5IvRK5_Uc5L18yJWNoeg-33" target="5IvRK5_Uc5L18yJWNoeg-35">
          <mxGeometry relative="1" as="geometry" />
        </mxCell>
        <mxCell id="5IvRK5_Uc5L18yJWNoeg-33" value="Ask player to guess a letter." style="whiteSpace=wrap;html=1;rounded=1;" vertex="1" parent="1">
          <mxGeometry x="320" y="210" width="120" height="40" as="geometry" />
        </mxCell>
        <mxCell id="5IvRK5_Uc5L18yJWNoeg-38" value="" style="edgeStyle=orthogonalEdgeStyle;rounded=0;orthogonalLoop=1;jettySize=auto;html=1;" edge="1" parent="1" source="5IvRK5_Uc5L18yJWNoeg-35" target="5IvRK5_Uc5L18yJWNoeg-37">
          <mxGeometry relative="1" as="geometry" />
        </mxCell>
        <mxCell id="5IvRK5_Uc5L18yJWNoeg-40" value="" style="edgeStyle=orthogonalEdgeStyle;rounded=0;orthogonalLoop=1;jettySize=auto;html=1;" edge="1" parent="1" source="5IvRK5_Uc5L18yJWNoeg-35" target="5IvRK5_Uc5L18yJWNoeg-39">
          <mxGeometry relative="1" as="geometry" />
        </mxCell>
        <mxCell id="5IvRK5_Uc5L18yJWNoeg-35" value="Is the guessed letter in the word?" style="whiteSpace=wrap;html=1;rounded=1;" vertex="1" parent="1">
          <mxGeometry x="320" y="280" width="120" height="60" as="geometry" />
        </mxCell>
        <mxCell id="5IvRK5_Uc5L18yJWNoeg-44" value="" style="edgeStyle=orthogonalEdgeStyle;rounded=0;orthogonalLoop=1;jettySize=auto;html=1;" edge="1" parent="1" source="5IvRK5_Uc5L18yJWNoeg-37" target="5IvRK5_Uc5L18yJWNoeg-43">
          <mxGeometry relative="1" as="geometry" />
        </mxCell>
        <mxCell id="5IvRK5_Uc5L18yJWNoeg-37" value="Lose a life." style="whiteSpace=wrap;html=1;rounded=1;" vertex="1" parent="1">
          <mxGeometry x="520" y="280" width="120" height="60" as="geometry" />
        </mxCell>
        <mxCell id="5IvRK5_Uc5L18yJWNoeg-58" value="" style="edgeStyle=orthogonalEdgeStyle;rounded=0;orthogonalLoop=1;jettySize=auto;html=1;" edge="1" parent="1" source="5IvRK5_Uc5L18yJWNoeg-39" target="5IvRK5_Uc5L18yJWNoeg-57">
          <mxGeometry relative="1" as="geometry" />
        </mxCell>
        <mxCell id="5IvRK5_Uc5L18yJWNoeg-39" value="Replace the blank with the letter" style="whiteSpace=wrap;html=1;rounded=1;" vertex="1" parent="1">
          <mxGeometry x="120" y="280" width="120" height="60" as="geometry" />
        </mxCell>
        <mxCell id="5IvRK5_Uc5L18yJWNoeg-41" value="Yes" style="text;html=1;align=center;verticalAlign=middle;resizable=0;points=[];autosize=1;strokeColor=none;fillColor=none;" vertex="1" parent="1">
          <mxGeometry x="260" y="280" width="40" height="30" as="geometry" />
        </mxCell>
        <mxCell id="5IvRK5_Uc5L18yJWNoeg-42" value="No" style="text;html=1;align=center;verticalAlign=middle;resizable=0;points=[];autosize=1;strokeColor=none;fillColor=none;" vertex="1" parent="1">
          <mxGeometry x="460" y="278" width="40" height="30" as="geometry" />
        </mxCell>
        <mxCell id="5IvRK5_Uc5L18yJWNoeg-43" value="Have the user ran out of lifes?" style="whiteSpace=wrap;html=1;rounded=1;" vertex="1" parent="1">
          <mxGeometry x="520" y="370" width="120" height="60" as="geometry" />
        </mxCell>
        <mxCell id="5IvRK5_Uc5L18yJWNoeg-55" value="" style="edgeStyle=orthogonalEdgeStyle;rounded=0;orthogonalLoop=1;jettySize=auto;html=1;exitX=0;exitY=0.5;exitDx=0;exitDy=0;entryX=0.5;entryY=0;entryDx=0;entryDy=0;" edge="1" parent="1" source="5IvRK5_Uc5L18yJWNoeg-43" target="5IvRK5_Uc5L18yJWNoeg-45">
          <mxGeometry relative="1" as="geometry">
            <mxPoint x="495" y="400" as="sourcePoint" />
            <mxPoint x="360" y="430" as="targetPoint" />
            <Array as="points">
              <mxPoint x="380" y="400" />
            </Array>
          </mxGeometry>
        </mxCell>
        <mxCell id="5IvRK5_Uc5L18yJWNoeg-45" value="GAME OVER" style="whiteSpace=wrap;html=1;rounded=1;" vertex="1" parent="1">
          <mxGeometry x="320" y="460" width="120" height="60" as="geometry" />
        </mxCell>
        <mxCell id="5IvRK5_Uc5L18yJWNoeg-49" value="No" style="text;html=1;align=center;verticalAlign=middle;resizable=0;points=[];autosize=1;strokeColor=none;fillColor=none;" vertex="1" parent="1">
          <mxGeometry x="660" y="400" width="40" height="30" as="geometry" />
        </mxCell>
        <mxCell id="5IvRK5_Uc5L18yJWNoeg-50" value="" style="endArrow=classic;html=1;rounded=0;exitX=1;exitY=0.5;exitDx=0;exitDy=0;" edge="1" parent="1" source="5IvRK5_Uc5L18yJWNoeg-43" target="5IvRK5_Uc5L18yJWNoeg-33">
          <mxGeometry width="50" height="50" relative="1" as="geometry">
            <mxPoint x="777" y="370" as="sourcePoint" />
            <mxPoint x="780" y="240" as="targetPoint" />
            <Array as="points">
              <mxPoint x="720" y="400" />
              <mxPoint x="720" y="230" />
            </Array>
          </mxGeometry>
        </mxCell>
        <mxCell id="5IvRK5_Uc5L18yJWNoeg-51" value="Yes" style="text;html=1;align=center;verticalAlign=middle;resizable=0;points=[];autosize=1;strokeColor=none;fillColor=none;" vertex="1" parent="1">
          <mxGeometry x="460" y="368" width="40" height="30" as="geometry" />
        </mxCell>
        <mxCell id="5IvRK5_Uc5L18yJWNoeg-56" value="" style="endArrow=classic;html=1;rounded=0;" edge="1" parent="1">
          <mxGeometry width="50" height="50" relative="1" as="geometry">
            <mxPoint x="180" y="400" as="sourcePoint" />
            <mxPoint x="380" y="460" as="targetPoint" />
            <Array as="points">
              <mxPoint x="240" y="400" />
              <mxPoint x="380" y="400" />
            </Array>
          </mxGeometry>
        </mxCell>
        <mxCell id="5IvRK5_Uc5L18yJWNoeg-61" value="" style="edgeStyle=orthogonalEdgeStyle;rounded=0;orthogonalLoop=1;jettySize=auto;html=1;entryX=0;entryY=0.5;entryDx=0;entryDy=0;" edge="1" parent="1" source="5IvRK5_Uc5L18yJWNoeg-57" target="5IvRK5_Uc5L18yJWNoeg-33">
          <mxGeometry relative="1" as="geometry">
            <mxPoint x="80" y="220" as="targetPoint" />
            <Array as="points">
              <mxPoint x="50" y="400" />
              <mxPoint x="50" y="230" />
            </Array>
          </mxGeometry>
        </mxCell>
        <mxCell id="5IvRK5_Uc5L18yJWNoeg-57" value="Are all the blanks filled?" style="whiteSpace=wrap;html=1;rounded=1;" vertex="1" parent="1">
          <mxGeometry x="120" y="370" width="120" height="60" as="geometry" />
        </mxCell>
        <mxCell id="5IvRK5_Uc5L18yJWNoeg-59" value="Yes" style="text;html=1;align=center;verticalAlign=middle;resizable=0;points=[];autosize=1;strokeColor=none;fillColor=none;" vertex="1" parent="1">
          <mxGeometry x="280" y="370" width="40" height="30" as="geometry" />
        </mxCell>
        <mxCell id="5IvRK5_Uc5L18yJWNoeg-62" value="No" style="text;html=1;align=center;verticalAlign=middle;resizable=0;points=[];autosize=1;strokeColor=none;fillColor=none;" vertex="1" parent="1">
          <mxGeometry x="60" y="400" width="40" height="30" as="geometry" />
        </mxCell>
        <mxCell id="5IvRK5_Uc5L18yJWNoeg-69" value="" style="edgeStyle=orthogonalEdgeStyle;rounded=0;orthogonalLoop=1;jettySize=auto;html=1;entryX=1;entryY=0.25;entryDx=0;entryDy=0;" edge="1" parent="1" source="5IvRK5_Uc5L18yJWNoeg-45" target="5IvRK5_Uc5L18yJWNoeg-28">
          <mxGeometry relative="1" as="geometry">
            <mxPoint x="440" y="490" as="sourcePoint" />
            <mxPoint x="760" y="20" as="targetPoint" />
            <Array as="points">
              <mxPoint x="780" y="490" />
              <mxPoint x="780" y="18" />
            </Array>
          </mxGeometry>
        </mxCell>
      </root>
    </mxGraphModel>
  </diagram>
</mxfile>
